<mxfile host="Electron" modified="2023-12-22T15:20:02.600Z" agent="Mozilla/5.0 (X11; Linux x86_64) AppleWebKit/537.36 (KHTML, like Gecko) draw.io/22.0.2 Chrome/114.0.5735.289 Electron/25.8.4 Safari/537.36" etag="Luz6uIyX8YnBNkFj_0ff" version="22.0.2" type="device">
  <diagram name="Page-1" id="TtVnkeEEjEB0-R0Kt0P4">
    <mxGraphModel dx="1604" dy="843" grid="1" gridSize="10" guides="1" tooltips="1" connect="1" arrows="1" fold="1" page="1" pageScale="1" pageWidth="850" pageHeight="1100" math="0" shadow="0">
      <root>
        <mxCell id="0" />
        <mxCell id="1" parent="0" />
        <mxCell id="7eg9AI-U8wfrf_obAaeg-1" value="" style="rounded=0;whiteSpace=wrap;html=1;" parent="1" vertex="1">
          <mxGeometry x="80" y="40" width="680" height="750" as="geometry" />
        </mxCell>
        <mxCell id="7eg9AI-U8wfrf_obAaeg-2" value="Customer" style="shape=umlActor;verticalLabelPosition=bottom;verticalAlign=top;html=1;outlineConnect=0;" parent="1" vertex="1">
          <mxGeometry x="30" y="100" width="30" height="60" as="geometry" />
        </mxCell>
        <mxCell id="7eg9AI-U8wfrf_obAaeg-3" value="Mathly" style="text;html=1;align=center;verticalAlign=middle;resizable=0;points=[];autosize=1;strokeColor=none;fillColor=none;" parent="1" vertex="1">
          <mxGeometry x="375" y="40" width="60" height="30" as="geometry" />
        </mxCell>
        <mxCell id="7eg9AI-U8wfrf_obAaeg-4" value="Professor&lt;br&gt;" style="shape=umlActor;verticalLabelPosition=bottom;verticalAlign=top;html=1;outlineConnect=0;" parent="1" vertex="1">
          <mxGeometry x="30" y="740" width="30" height="60" as="geometry" />
        </mxCell>
        <mxCell id="7eg9AI-U8wfrf_obAaeg-5" value="Google" style="shape=umlActor;verticalLabelPosition=bottom;verticalAlign=top;html=1;outlineConnect=0;" parent="1" vertex="1">
          <mxGeometry x="790" y="330" width="30" height="60" as="geometry" />
        </mxCell>
        <mxCell id="7eg9AI-U8wfrf_obAaeg-6" value="DB" style="shape=umlActor;verticalLabelPosition=bottom;verticalAlign=top;html=1;outlineConnect=0;" parent="1" vertex="1">
          <mxGeometry x="790" y="490" width="30" height="60" as="geometry" />
        </mxCell>
        <mxCell id="7eg9AI-U8wfrf_obAaeg-7" value="Buy course subscription" style="ellipse;whiteSpace=wrap;html=1;" parent="1" vertex="1">
          <mxGeometry x="100" y="280" width="140" height="70" as="geometry" />
        </mxCell>
        <mxCell id="7eg9AI-U8wfrf_obAaeg-8" value="Choose payment method" style="ellipse;whiteSpace=wrap;html=1;" parent="1" vertex="1">
          <mxGeometry x="280" y="360" width="140" height="70" as="geometry" />
        </mxCell>
        <mxCell id="7eg9AI-U8wfrf_obAaeg-9" value="Extends" style="html=1;verticalAlign=bottom;endArrow=block;curved=0;rounded=0;exitX=0.5;exitY=1;exitDx=0;exitDy=0;entryX=0;entryY=0.5;entryDx=0;entryDy=0;" parent="1" source="7eg9AI-U8wfrf_obAaeg-7" target="7eg9AI-U8wfrf_obAaeg-8" edge="1">
          <mxGeometry width="80" relative="1" as="geometry">
            <mxPoint x="270" y="120" as="sourcePoint" />
            <mxPoint x="350" y="120" as="targetPoint" />
          </mxGeometry>
        </mxCell>
        <mxCell id="7eg9AI-U8wfrf_obAaeg-10" value="" style="html=1;verticalAlign=bottom;endArrow=block;curved=0;rounded=0;entryX=0;entryY=0.5;entryDx=0;entryDy=0;" parent="1" source="7eg9AI-U8wfrf_obAaeg-2" target="7eg9AI-U8wfrf_obAaeg-7" edge="1">
          <mxGeometry width="80" relative="1" as="geometry">
            <mxPoint x="170" y="140" as="sourcePoint" />
            <mxPoint x="250" y="140" as="targetPoint" />
          </mxGeometry>
        </mxCell>
        <mxCell id="7eg9AI-U8wfrf_obAaeg-11" value="Text message to professor" style="ellipse;whiteSpace=wrap;html=1;" parent="1" vertex="1">
          <mxGeometry x="110" y="170" width="140" height="70" as="geometry" />
        </mxCell>
        <mxCell id="7eg9AI-U8wfrf_obAaeg-39" style="rounded=0;orthogonalLoop=1;jettySize=auto;html=1;exitX=1;exitY=0;exitDx=0;exitDy=0;" parent="1" source="7eg9AI-U8wfrf_obAaeg-13" target="7eg9AI-U8wfrf_obAaeg-6" edge="1">
          <mxGeometry relative="1" as="geometry" />
        </mxCell>
        <mxCell id="7eg9AI-U8wfrf_obAaeg-12" value="Propose course" style="ellipse;whiteSpace=wrap;html=1;" parent="1" vertex="1">
          <mxGeometry x="220" y="640" width="140" height="70" as="geometry" />
        </mxCell>
        <mxCell id="7eg9AI-U8wfrf_obAaeg-13" value="Compile form" style="ellipse;whiteSpace=wrap;html=1;" parent="1" vertex="1">
          <mxGeometry x="510" y="600" width="140" height="70" as="geometry" />
        </mxCell>
        <mxCell id="7eg9AI-U8wfrf_obAaeg-15" value="Extends" style="html=1;verticalAlign=bottom;endArrow=block;curved=0;rounded=0;exitX=1;exitY=0.5;exitDx=0;exitDy=0;entryX=0;entryY=0.5;entryDx=0;entryDy=0;" parent="1" source="7eg9AI-U8wfrf_obAaeg-12" target="7eg9AI-U8wfrf_obAaeg-13" edge="1">
          <mxGeometry width="80" relative="1" as="geometry">
            <mxPoint x="260" y="125" as="sourcePoint" />
            <mxPoint x="470" y="715" as="targetPoint" />
          </mxGeometry>
        </mxCell>
        <mxCell id="7eg9AI-U8wfrf_obAaeg-17" value="Add lesson" style="ellipse;whiteSpace=wrap;html=1;" parent="1" vertex="1">
          <mxGeometry x="110" y="550" width="140" height="70" as="geometry" />
        </mxCell>
        <mxCell id="7eg9AI-U8wfrf_obAaeg-19" value="Reddit" style="shape=umlActor;verticalLabelPosition=bottom;verticalAlign=top;html=1;" parent="1" vertex="1">
          <mxGeometry x="790" y="140" width="30" height="60" as="geometry" />
        </mxCell>
        <mxCell id="7eg9AI-U8wfrf_obAaeg-22" value="Join the course community" style="ellipse;whiteSpace=wrap;html=1;" parent="1" vertex="1">
          <mxGeometry x="340" y="90" width="140" height="70" as="geometry" />
        </mxCell>
        <mxCell id="7eg9AI-U8wfrf_obAaeg-38" style="rounded=0;orthogonalLoop=1;jettySize=auto;html=1;exitX=1;exitY=0.5;exitDx=0;exitDy=0;" parent="1" source="7eg9AI-U8wfrf_obAaeg-23" target="7eg9AI-U8wfrf_obAaeg-5" edge="1">
          <mxGeometry relative="1" as="geometry" />
        </mxCell>
        <mxCell id="7eg9AI-U8wfrf_obAaeg-23" value="Login" style="ellipse;whiteSpace=wrap;html=1;" parent="1" vertex="1">
          <mxGeometry x="540" y="320" width="140" height="70" as="geometry" />
        </mxCell>
        <mxCell id="7eg9AI-U8wfrf_obAaeg-24" value="includes" style="html=1;verticalAlign=bottom;endArrow=block;curved=0;rounded=0;exitX=1;exitY=0.5;exitDx=0;exitDy=0;entryX=0;entryY=0.5;entryDx=0;entryDy=0;" parent="1" source="7eg9AI-U8wfrf_obAaeg-7" target="7eg9AI-U8wfrf_obAaeg-23" edge="1">
          <mxGeometry width="80" relative="1" as="geometry">
            <mxPoint x="330" y="220" as="sourcePoint" />
            <mxPoint x="410" y="220" as="targetPoint" />
          </mxGeometry>
        </mxCell>
        <mxCell id="7eg9AI-U8wfrf_obAaeg-25" value="includes" style="html=1;verticalAlign=bottom;endArrow=block;curved=0;rounded=0;exitX=1;exitY=0.5;exitDx=0;exitDy=0;entryX=0;entryY=0;entryDx=0;entryDy=0;" parent="1" source="7eg9AI-U8wfrf_obAaeg-11" target="7eg9AI-U8wfrf_obAaeg-23" edge="1">
          <mxGeometry width="80" relative="1" as="geometry">
            <mxPoint x="239" y="150" as="sourcePoint" />
            <mxPoint x="480" y="390" as="targetPoint" />
          </mxGeometry>
        </mxCell>
        <mxCell id="7eg9AI-U8wfrf_obAaeg-27" value="includes" style="html=1;verticalAlign=bottom;endArrow=block;curved=0;rounded=0;exitX=1;exitY=0;exitDx=0;exitDy=0;entryX=0;entryY=1;entryDx=0;entryDy=0;" parent="1" source="7eg9AI-U8wfrf_obAaeg-17" target="7eg9AI-U8wfrf_obAaeg-23" edge="1">
          <mxGeometry width="80" relative="1" as="geometry">
            <mxPoint x="260" y="305" as="sourcePoint" />
            <mxPoint x="480" y="390" as="targetPoint" />
          </mxGeometry>
        </mxCell>
        <mxCell id="7eg9AI-U8wfrf_obAaeg-28" value="includes" style="html=1;verticalAlign=bottom;endArrow=block;curved=0;rounded=0;exitX=1;exitY=0;exitDx=0;exitDy=0;entryX=0.5;entryY=1;entryDx=0;entryDy=0;" parent="1" source="7eg9AI-U8wfrf_obAaeg-12" target="7eg9AI-U8wfrf_obAaeg-23" edge="1">
          <mxGeometry width="80" relative="1" as="geometry">
            <mxPoint x="260" y="595" as="sourcePoint" />
            <mxPoint x="431" y="450" as="targetPoint" />
          </mxGeometry>
        </mxCell>
        <mxCell id="7eg9AI-U8wfrf_obAaeg-29" value="Watch lesson" style="ellipse;whiteSpace=wrap;html=1;" parent="1" vertex="1">
          <mxGeometry x="110" y="390" width="140" height="70" as="geometry" />
        </mxCell>
        <mxCell id="7eg9AI-U8wfrf_obAaeg-30" value="" style="html=1;verticalAlign=bottom;endArrow=block;curved=0;rounded=0;entryX=0;entryY=0.5;entryDx=0;entryDy=0;" parent="1" source="7eg9AI-U8wfrf_obAaeg-2" target="7eg9AI-U8wfrf_obAaeg-11" edge="1">
          <mxGeometry width="80" relative="1" as="geometry">
            <mxPoint x="70" y="139" as="sourcePoint" />
            <mxPoint x="280" y="125" as="targetPoint" />
          </mxGeometry>
        </mxCell>
        <mxCell id="7eg9AI-U8wfrf_obAaeg-31" value="" style="html=1;verticalAlign=bottom;endArrow=block;curved=0;rounded=0;entryX=0;entryY=0.5;entryDx=0;entryDy=0;" parent="1" source="7eg9AI-U8wfrf_obAaeg-2" target="7eg9AI-U8wfrf_obAaeg-22" edge="1">
          <mxGeometry width="80" relative="1" as="geometry">
            <mxPoint x="70" y="145" as="sourcePoint" />
            <mxPoint x="280" y="215" as="targetPoint" />
          </mxGeometry>
        </mxCell>
        <mxCell id="7eg9AI-U8wfrf_obAaeg-32" value="" style="html=1;verticalAlign=bottom;endArrow=block;curved=0;rounded=0;entryX=0;entryY=0.5;entryDx=0;entryDy=0;" parent="1" source="7eg9AI-U8wfrf_obAaeg-2" target="7eg9AI-U8wfrf_obAaeg-29" edge="1">
          <mxGeometry width="80" relative="1" as="geometry">
            <mxPoint x="70" y="151" as="sourcePoint" />
            <mxPoint x="280" y="305" as="targetPoint" />
          </mxGeometry>
        </mxCell>
        <mxCell id="7eg9AI-U8wfrf_obAaeg-33" value="" style="html=1;verticalAlign=bottom;endArrow=block;curved=0;rounded=0;entryX=0;entryY=0.5;entryDx=0;entryDy=0;" parent="1" source="7eg9AI-U8wfrf_obAaeg-4" target="7eg9AI-U8wfrf_obAaeg-17" edge="1">
          <mxGeometry width="80" relative="1" as="geometry">
            <mxPoint x="70" y="160" as="sourcePoint" />
            <mxPoint x="280" y="435" as="targetPoint" />
          </mxGeometry>
        </mxCell>
        <mxCell id="7eg9AI-U8wfrf_obAaeg-34" value="" style="html=1;verticalAlign=bottom;endArrow=block;curved=0;rounded=0;entryX=0;entryY=0.5;entryDx=0;entryDy=0;" parent="1" source="7eg9AI-U8wfrf_obAaeg-4" target="7eg9AI-U8wfrf_obAaeg-12" edge="1">
          <mxGeometry width="80" relative="1" as="geometry">
            <mxPoint x="70" y="768" as="sourcePoint" />
            <mxPoint x="280" y="595" as="targetPoint" />
          </mxGeometry>
        </mxCell>
        <mxCell id="7eg9AI-U8wfrf_obAaeg-40" style="rounded=0;orthogonalLoop=1;jettySize=auto;html=1;exitX=1;exitY=0.5;exitDx=0;exitDy=0;entryX=0.233;entryY=0.767;entryDx=0;entryDy=0;entryPerimeter=0;" parent="1" source="7eg9AI-U8wfrf_obAaeg-22" target="7eg9AI-U8wfrf_obAaeg-19" edge="1">
          <mxGeometry relative="1" as="geometry" />
        </mxCell>
      </root>
    </mxGraphModel>
  </diagram>
</mxfile>
